# xmcd
# 
# Track frame offsets:
#     150
#     40440
#     64274
#     100339
#     130569
#     154757
#     188669
#     218221
#     244804
# 
# Disc length: 4467
# 
# Revision: 3
# Processed by: cddbd v1.5.2PL0 Copyright (c) Steve Scherf et al.
# Submitted via: fre:ac v1.0.27
# 
DISCID=7b117109
DTITLE=Egberto Gismonti - Selected Recordings, Rarum XI
DYEAR=2004
DGENRE=Jazz
TTITLE0=Ensaio de Escola de Samba (Dança Dos Escravos)
TTITLE1=Kalimba (Lua Cheia)
TTITLE2=Cavaquinho
TTITLE3=Bianca
TTITLE4=Danca No. 1
TTITLE5=10 Anos
TTITLE6=Lundu (Azul)
TTITLE7=Frevo
TTITLE8=Selva Amazônica - Pau Rolou
EXTD=YEAR: 2004
EXTT0=
EXTT1=
EXTT2=
EXTT3=
EXTT4=
EXTT5=
EXTT6=
EXTT7=
EXTT8=
PLAYORDER=
